<svg width="2184" height="1348" viewBox="0 0 2184 1348" fill="none" xmlns="http://www.w3.org/2000/svg">
<g clip-path="url(#clip0_178_36)">
<g filter="url(#filter0_f_178_36)">
<path d="M531.898 1099.26C454.489 1162.63 333.592 1146.23 261.868 1062.64C190.144 979.049 194.752 859.914 272.161 796.546C349.57 733.178 470.466 749.573 542.191 833.166C613.915 916.758 609.307 1035.89 531.898 1099.26Z" fill="url(#paint0_linear_178_36)" fill-opacity="0.5"/>
</g>
<g filter="url(#filter1_f_178_36)">
<path d="M1911.84 1063.24C1834.43 1126.61 1713.53 1110.21 1641.81 1026.62C1570.09 943.025 1574.69 823.89 1652.1 760.522C1729.51 697.154 1850.41 713.549 1922.13 797.142C1993.86 880.734 1989.25 999.87 1911.84 1063.24Z" fill="url(#paint1_linear_178_36)" fill-opacity="0.6"/>
</g>
<g filter="url(#filter2_f_178_36)">
<path d="M1277.38 551.454C1199.97 614.822 1079.08 598.427 1007.35 514.834C935.629 431.242 940.238 312.106 1017.65 248.738C1095.06 185.37 1215.95 201.765 1287.68 285.358C1359.4 368.951 1354.79 488.086 1277.38 551.454Z" fill="url(#paint2_linear_178_36)" fill-opacity="0.5"/>
</g>
</g>
<defs>
<filter id="filter0_f_178_36" x="0.950195" y="547.962" width="802.159" height="799.882" filterUnits="userSpaceOnUse" color-interpolation-filters="sRGB">
<feFlood flood-opacity="0" result="BackgroundImageFix"/>
<feBlend mode="normal" in="SourceGraphic" in2="BackgroundImageFix" result="shape"/>
<feGaussianBlur stdDeviation="105" result="effect1_foregroundBlur_178_36"/>
</filter>
<filter id="filter1_f_178_36" x="1380.89" y="511.938" width="802.16" height="799.886" filterUnits="userSpaceOnUse" color-interpolation-filters="sRGB">
<feFlood flood-opacity="0" result="BackgroundImageFix"/>
<feBlend mode="normal" in="SourceGraphic" in2="BackgroundImageFix" result="shape"/>
<feGaussianBlur stdDeviation="105" result="effect1_foregroundBlur_178_36"/>
</filter>
<filter id="filter2_f_178_36" x="746.436" y="0.153809" width="802.158" height="799.884" filterUnits="userSpaceOnUse" color-interpolation-filters="sRGB">
<feFlood flood-opacity="0" result="BackgroundImageFix"/>
<feBlend mode="normal" in="SourceGraphic" in2="BackgroundImageFix" result="shape"/>
<feGaussianBlur stdDeviation="105" result="effect1_foregroundBlur_178_36"/>
</filter>
<linearGradient id="paint0_linear_178_36" x1="459.767" y1="592.186" x2="184.903" y2="828.024" gradientUnits="userSpaceOnUse">
<stop stop-color="#DB00FF"/>
<stop offset="0.511377" stop-color="#81A2F4" stop-opacity="0.701254"/>
<stop offset="0.725" stop-color="#5CE6EF" stop-opacity="0.576455"/>
<stop offset="1" stop-color="#00A3FF" stop-opacity="0.6"/>
</linearGradient>
<linearGradient id="paint1_linear_178_36" x1="1839.71" y1="556.162" x2="1564.84" y2="792" gradientUnits="userSpaceOnUse">
<stop stop-color="#DB00FF"/>
</linearGradient>
<linearGradient id="paint2_linear_178_36" x1="1205.25" y1="44.3779" x2="930.389" y2="280.216" gradientUnits="userSpaceOnUse">
<stop stop-color="#DB00FF"/>
<stop offset="0.511377" stop-color="#81A2F4" stop-opacity="0.701254"/>
<stop offset="0.725" stop-color="#5CE6EF" stop-opacity="0.576455"/>
<stop offset="1" stop-color="#00A3FF" stop-opacity="0.6"/>
</linearGradient>
<clipPath id="clip0_178_36">
<rect width="2184" height="1348" fill="white"/>
</clipPath>
</defs>
</svg>
